<svg width="36" height="36" viewBox="0 0 36 36" fill="none" xmlns="http://www.w3.org/2000/svg">
<g clip-path="url(#clip0_4_18)">
<path d="M10.3123 0.0101147C9.97632 0.064381 9.5732 0.240099 9.28895 0.457166C8.42845 1.11095 7.76173 2.49862 7.48006 4.22739C7.37412 4.88116 7.30178 5.7882 7.30178 6.48076C7.30178 7.29733 7.39739 8.34129 7.53435 9.06226C7.56538 9.22249 7.58085 9.36464 7.56795 9.37496C7.55762 9.38529 7.43099 9.48866 7.28884 9.60235C6.80305 9.98996 6.24746 10.5869 5.86499 11.1322C5.13112 12.1736 4.65566 13.3571 4.45665 14.6388C4.37912 15.1453 4.35847 16.1686 4.42048 16.6751C4.55744 17.8431 4.90888 18.8302 5.51097 19.7347L5.70737 20.0267L5.65051 20.1223C5.24738 20.7994 4.9037 21.7787 4.74351 22.7193C4.61688 23.4636 4.60136 23.6625 4.60136 24.66C4.60136 25.6653 4.6143 25.8642 4.73318 26.5594C4.87528 27.3914 5.16472 28.2726 5.4877 28.8592C5.59368 29.0504 5.85209 29.4484 5.88311 29.4691C5.89344 29.4742 5.86242 29.5698 5.81331 29.6809C5.44121 30.495 5.12336 31.5777 4.99159 32.4899C4.89855 33.1152 4.88561 33.3168 4.88561 33.9758C4.88561 34.8156 4.93215 35.2239 5.10785 35.8932L5.13369 35.9914H6.2397H7.34828L7.27594 35.8544C6.82889 35.0275 6.78754 33.4925 7.17258 31.9602C7.34828 31.2521 7.54725 30.7327 7.91939 30.0169L8.14163 29.5828V29.3166C8.14163 29.0685 8.13644 29.0401 8.05635 28.8773C7.9943 28.7532 7.91163 28.6473 7.76435 28.5026C7.51365 28.2597 7.33277 28.0039 7.18809 27.6886C6.5524 26.3087 6.42834 24.2595 6.87539 22.5126C7.06146 21.7839 7.36898 21.1353 7.69197 20.7813C7.91163 20.5383 8.02533 20.267 8.02533 19.9854C8.02533 19.6933 7.92196 19.453 7.6894 19.2024C7.02268 18.4892 6.6118 17.6209 6.46451 16.6105C6.25521 15.1711 6.63507 13.6026 7.49818 12.3596C8.34317 11.1399 9.52927 10.3569 10.8549 10.1476C11.1521 10.0985 11.7077 10.1063 12.0178 10.1631C12.3563 10.2226 12.5682 10.2044 12.7853 10.1011C13.054 9.97449 13.1884 9.81683 13.346 9.45506C13.4856 9.13207 13.5941 8.95633 13.8861 8.59199C14.2376 8.15526 14.5761 7.85807 15.1187 7.49888C15.7389 7.09318 16.4444 6.7986 17.1473 6.65646C17.4031 6.60478 17.5219 6.59702 18 6.59702C18.4781 6.59702 18.597 6.60478 18.8528 6.65646C19.8838 6.8658 20.9072 7.39813 21.7237 8.15265C21.8994 8.31545 22.3207 8.83745 22.455 9.05455C22.5067 9.13978 22.5972 9.32071 22.654 9.45506C22.8116 9.81683 22.946 9.97449 23.2148 10.1011C23.4241 10.2019 23.6437 10.2226 23.9693 10.1683C24.4836 10.0804 24.8789 10.0882 25.3828 10.1915C27.0987 10.5378 28.5923 11.9513 29.2539 13.8455C29.8301 15.5071 29.6673 17.2462 28.8094 18.5744C28.6647 18.7993 28.5199 18.9801 28.3106 19.2024C27.8584 19.6856 27.8584 20.2851 28.3081 20.7813C29.0471 21.5901 29.5097 23.5799 29.3701 25.3345C29.2771 26.4922 28.9799 27.5284 28.5716 28.115C28.4993 28.2184 28.3494 28.3941 28.2357 28.5026C28.0884 28.6473 28.0057 28.7532 27.9437 28.8773C27.8636 29.0401 27.8584 29.0685 27.8584 29.3166V29.5828L28.0807 30.0169C28.4528 30.7327 28.6518 31.2521 28.8275 31.9602C29.2074 33.4719 29.1738 34.9758 28.7396 35.8312C28.7034 35.9035 28.6724 35.9707 28.6724 35.9785C28.6724 35.9862 29.166 35.9914 29.7707 35.9914H30.8664L30.8948 35.8802C30.9103 35.8208 30.9361 35.7304 30.949 35.6787C30.9775 35.565 31.0343 35.2291 31.0808 34.906C31.1248 34.5804 31.1248 33.3814 31.0808 33.0196C30.9155 31.7069 30.6389 30.6655 30.1867 29.6809C30.1376 29.5698 30.1066 29.4742 30.1169 29.4691C30.1299 29.4613 30.2022 29.358 30.2797 29.2417C30.8431 28.3889 31.1893 27.3165 31.3651 25.9004C31.4116 25.5102 31.4116 23.8331 31.3651 23.4584C31.241 22.4919 31.0912 21.8356 30.8431 21.1715C30.7397 20.895 30.4658 20.311 30.3495 20.1223L30.2927 20.0267L30.4891 19.7347C31.0912 18.8302 31.4426 17.8431 31.5796 16.6751C31.6416 16.1686 31.6209 15.1453 31.5434 14.6388C31.3418 13.3545 30.8689 12.1761 30.1351 11.1322C29.7526 10.5869 29.197 9.98996 28.7112 9.60235C28.5691 9.48866 28.4424 9.38529 28.4321 9.37496C28.4192 9.36464 28.4347 9.22249 28.4657 9.06226C28.7784 7.43168 28.768 5.39802 28.4399 3.80877C28.1556 2.42368 27.6388 1.32284 26.9721 0.687153C26.4397 0.180666 25.8971 -0.0364002 25.2459 0.00494575C23.7523 0.0928054 22.5481 1.81124 22.0726 4.51939C21.9951 4.95611 21.9279 5.46778 21.9279 5.60732C21.9279 5.66157 21.9175 5.70549 21.9046 5.70549C21.8917 5.70549 21.7909 5.65381 21.6824 5.58923C20.5299 4.907 19.2481 4.54266 18 4.54266C16.7519 4.54266 15.4702 4.907 14.3177 5.58923C14.2091 5.65381 14.1084 5.70549 14.0954 5.70549C14.0825 5.70549 14.0721 5.66157 14.0721 5.60732C14.0721 5.4626 14.0024 4.93546 13.9275 4.51939C13.4959 2.08774 12.5062 0.477839 11.1909 0.072132C11.01 0.0178657 10.4958 -0.0183106 10.3123 0.0101147ZM10.7516 2.11359C11.1237 2.40818 11.5371 3.2506 11.7749 4.1938C11.8188 4.36435 11.8653 4.56074 11.8783 4.63308C11.8886 4.70289 11.917 4.86051 11.9403 4.98195C12.0411 5.52979 12.0875 6.12156 12.0927 6.84253L12.0953 7.55317L11.917 7.81672L11.7387 8.08289H11.3227C10.8369 8.08289 10.3536 8.14494 9.89104 8.26896C9.72567 8.31031 9.56544 8.35166 9.53446 8.35942C9.48535 8.36975 9.47759 8.35423 9.44918 8.14232C9.29671 6.99239 9.30446 5.71844 9.47245 4.65892C9.65848 3.478 10.0926 2.40818 10.5164 2.09292C10.6172 2.01797 10.6353 2.02056 10.7516 2.11359ZM25.4862 2.0955C25.742 2.28414 26.0237 2.78546 26.233 3.42631C26.6542 4.70803 26.7731 6.46782 26.5509 8.14232C26.5225 8.35423 26.5147 8.36975 26.4656 8.35942C26.4346 8.35166 26.2744 8.31031 26.109 8.26896C25.6464 8.14494 25.1632 8.08289 24.6774 8.08289H24.2613L24.0831 7.81672L23.9047 7.55317L23.9073 6.84253C23.9125 5.83988 24.0055 5.0569 24.2277 4.18605C24.4629 3.2506 24.8789 2.40818 25.2485 2.11359C25.3648 2.02056 25.3828 2.01797 25.4862 2.0955Z" fill="black"/>
<path d="M17.5994 15.1014C17.0386 15.1556 16.8862 15.1763 16.6174 15.2306C16.1807 15.321 15.5967 15.5226 15.191 15.7216C13.7801 16.4115 12.8085 17.5614 12.5113 18.8923C12.4518 19.1559 12.4441 19.2437 12.4441 19.6882C12.4441 20.1275 12.4518 20.2231 12.5087 20.4737C12.9041 22.2129 14.5062 23.4972 16.5787 23.7323C17.0283 23.7814 18.9716 23.7814 19.4212 23.7323C21.0854 23.5437 22.517 22.6418 23.1605 21.3756C23.331 21.0371 23.4137 20.8174 23.4912 20.4737C23.5481 20.2231 23.5558 20.1275 23.5558 19.6882C23.5558 19.2437 23.5481 19.1559 23.4886 18.8923C23.0571 16.9594 21.181 15.4373 18.8811 15.1479C18.5814 15.1117 17.7958 15.0807 17.5994 15.1014ZM18.5659 16.5071C19.3334 16.5898 20.106 16.8637 20.7262 17.2772C21.0596 17.4994 21.5299 17.9646 21.7314 18.2695C21.9795 18.6468 22.1216 19.0318 22.1862 19.4995C22.2146 19.714 22.1992 19.8768 22.1216 20.2231C22.0002 20.7399 21.6229 21.28 21.1138 21.6573C20.8761 21.8304 20.3825 22.0811 20.0802 22.1793C19.5065 22.3627 19.1318 22.3963 17.7932 22.386C16.9198 22.3782 16.7647 22.3705 16.5141 22.324C15.6588 22.1638 14.9817 21.8226 14.4907 21.3033C14.0928 20.8846 13.9119 20.5022 13.8137 19.8846C13.7698 19.5977 13.8524 19.1223 14.0204 18.7217C14.2246 18.2333 14.7517 17.6261 15.2737 17.2772C15.8784 16.8741 16.6743 16.5873 17.4056 16.5097C17.6873 16.4787 18.2842 16.4787 18.5659 16.5071Z" fill="black"/>
<path d="M17.0129 18.3936C16.8165 18.4995 16.6795 18.7683 16.7209 18.9672C16.7674 19.1817 16.956 19.3988 17.2506 19.5771C17.4083 19.6727 17.4186 19.6856 17.4263 19.7812C17.4315 19.8381 17.4108 20.0009 17.3824 20.1456C17.3514 20.2877 17.3281 20.4376 17.3281 20.479C17.3307 20.5901 17.4341 20.771 17.5426 20.8588C17.6383 20.9364 17.6563 20.9389 17.9251 20.9467C18.1706 20.9544 18.2223 20.9493 18.3204 20.9028C18.5737 20.7787 18.6383 20.5513 18.5453 20.1146C18.4677 19.7503 18.4832 19.6934 18.6771 19.5823C18.8812 19.4634 19.0983 19.2541 19.1629 19.112C19.2869 18.8407 19.1732 18.5331 18.8993 18.391C18.8321 18.3574 18.7494 18.3419 18.628 18.3419C18.4393 18.3419 18.3179 18.3858 18.0956 18.5279L17.969 18.6081L17.8889 18.559C17.5607 18.3651 17.5013 18.3419 17.3023 18.3445C17.1602 18.3445 17.0827 18.3574 17.0129 18.3936Z" fill="black"/>
<path d="M10.7386 15.3934C10.2812 15.5381 9.94011 15.874 9.76441 16.3521C9.67913 16.5795 9.63778 16.9387 9.67395 17.1325C9.75922 17.5951 10.1391 18.0163 10.5707 18.1326C11.1133 18.2747 11.519 18.1817 11.8782 17.8251C12.0875 17.6209 12.2012 17.4426 12.3149 17.1532C12.3976 16.9491 12.4028 16.9129 12.4028 16.6235L12.4054 16.3134L12.2968 16.0911C12.1237 15.7397 11.811 15.4787 11.4492 15.3831C11.2451 15.3314 10.9169 15.334 10.7386 15.3934Z" fill="black"/>
<path d="M24.5404 15.3857C24.1864 15.4813 23.8711 15.7448 23.7031 16.0911L23.5946 16.3134L23.5972 16.6235C23.5972 16.9129 23.6024 16.9491 23.685 17.1532C23.7988 17.4426 23.9125 17.6209 24.1217 17.8251C24.4809 18.1817 24.8866 18.2747 25.4293 18.1326C25.742 18.0499 26.0547 17.7863 26.2046 17.4788C26.3338 17.2178 26.3647 17.0292 26.3234 16.732C26.2278 16.0524 25.8299 15.5588 25.2381 15.3857C25.065 15.334 24.729 15.334 24.5404 15.3857Z" fill="black"/>
</g>
<defs>
<clipPath id="clip0_4_18">
<rect width="36" height="36" fill="white"/>
</clipPath>
</defs>
</svg>
