<svg width="12" height="12" viewBox="0 0 12 12" fill="none" xmlns="http://www.w3.org/2000/svg">
<g clip-path="url(#clip0_4_18)">
<path d="M3.43742 0.00337157C3.32544 0.0214603 3.19107 0.0800331 3.09632 0.152389C2.80948 0.370315 2.58724 0.832873 2.49335 1.40913C2.45804 1.62705 2.43393 1.9294 2.43393 2.16025C2.43393 2.43245 2.4658 2.78043 2.51145 3.02075C2.52179 3.07416 2.52695 3.12155 2.52265 3.12499C2.51921 3.12843 2.477 3.16289 2.42961 3.20078C2.26768 3.32999 2.08249 3.52897 1.955 3.71073C1.71037 4.05785 1.55189 4.45237 1.48555 4.8796C1.45971 5.04843 1.45282 5.38953 1.47349 5.55836C1.51915 5.9477 1.63629 6.27674 1.83699 6.57823L1.90246 6.67557L1.8835 6.70744C1.74913 6.93312 1.63457 7.25958 1.58117 7.57311C1.53896 7.82119 1.53379 7.88751 1.53379 8.22C1.53379 8.55509 1.5381 8.62141 1.57773 8.85312C1.62509 9.13048 1.72157 9.4242 1.82923 9.61974C1.86456 9.68348 1.9507 9.81613 1.96104 9.82303C1.96448 9.82474 1.95414 9.85661 1.93777 9.89365C1.81374 10.165 1.70779 10.5259 1.66386 10.83C1.63285 11.0384 1.62854 11.1056 1.62854 11.3253C1.62854 11.6052 1.64405 11.7413 1.70262 11.9644L1.71123 11.9971H2.0799H2.44943L2.42531 11.9515C2.2763 11.6758 2.26251 11.1642 2.39086 10.6534C2.44943 10.4174 2.51575 10.2442 2.6398 10.0056L2.71388 9.86092V9.7722C2.71388 9.68951 2.71215 9.68004 2.68545 9.62577C2.66477 9.58442 2.63721 9.54911 2.58812 9.50087C2.50455 9.4199 2.44426 9.33462 2.39603 9.22953C2.18413 8.76956 2.14278 8.0865 2.2918 7.5042C2.35382 7.26129 2.45633 7.0451 2.56399 6.92709C2.63721 6.84611 2.67511 6.75568 2.67511 6.66178C2.67511 6.56445 2.64065 6.48434 2.56313 6.40079C2.34089 6.16305 2.20393 5.87362 2.15484 5.53683C2.08507 5.05704 2.21169 4.53419 2.49939 4.11988C2.78106 3.7133 3.17642 3.4523 3.61832 3.38254C3.71737 3.36617 3.90257 3.36875 4.00593 3.38771C4.11878 3.40752 4.1894 3.40148 4.26176 3.36703C4.35134 3.32483 4.39614 3.27228 4.44868 3.15169C4.49519 3.04402 4.53137 2.98544 4.62871 2.864C4.74585 2.71842 4.85869 2.61936 5.03957 2.49963C5.24631 2.36439 5.48146 2.2662 5.71576 2.21882C5.80102 2.20159 5.84065 2.19901 6.00001 2.19901C6.15937 2.19901 6.19899 2.20159 6.28426 2.21882C6.62794 2.2886 6.96906 2.46604 7.24125 2.71755C7.29982 2.77182 7.44022 2.94582 7.48501 3.01818C7.50224 3.04659 7.5324 3.1069 7.55134 3.15169C7.60388 3.27228 7.64867 3.32483 7.73825 3.36703C7.80803 3.40062 7.88124 3.40752 7.98977 3.38942C8.16119 3.36014 8.29298 3.36273 8.46095 3.39718C9.0329 3.5126 9.53078 3.98378 9.75129 4.61517C9.94337 5.16902 9.8891 5.74873 9.60313 6.19147C9.55489 6.26642 9.50665 6.32671 9.43688 6.40079C9.28614 6.56186 9.28614 6.7617 9.43603 6.92709C9.68238 7.1967 9.83656 7.85996 9.79004 8.44482C9.75904 8.83072 9.65998 9.17614 9.52388 9.37166C9.49976 9.40612 9.44981 9.46468 9.4119 9.50087C9.3628 9.54911 9.33525 9.58442 9.31456 9.62577C9.28787 9.68004 9.28614 9.68951 9.28614 9.7722V9.86092L9.36022 10.0056C9.48426 10.2442 9.55059 10.4174 9.60915 10.6534C9.73579 11.1573 9.72459 11.6586 9.57987 11.9437C9.56782 11.9678 9.55747 11.9902 9.55747 11.9928C9.55747 11.9954 9.722 11.9971 9.92356 11.9971H10.2888L10.2983 11.9601C10.3034 11.9403 10.312 11.9101 10.3163 11.8929C10.3258 11.855 10.3448 11.743 10.3603 11.6353C10.3749 11.5268 10.3749 11.1271 10.3603 11.0065C10.3052 10.569 10.213 10.2218 10.0622 9.89365C10.0459 9.85661 10.0355 9.82474 10.039 9.82303C10.0433 9.82044 10.0674 9.78599 10.0932 9.74722C10.281 9.46297 10.3964 9.1055 10.455 8.63347C10.4705 8.50339 10.4705 7.94437 10.455 7.81946C10.4137 7.49732 10.3637 7.27852 10.281 7.05715C10.2466 6.96499 10.1553 6.77032 10.1165 6.70744L10.0976 6.67557L10.163 6.57823C10.3637 6.27674 10.4809 5.9477 10.5265 5.55836C10.5472 5.38953 10.5403 5.04843 10.5145 4.8796C10.4473 4.45149 10.2896 4.05871 10.045 3.71073C9.91753 3.52897 9.73233 3.32999 9.5704 3.20078C9.52302 3.16289 9.48081 3.12843 9.47737 3.12499C9.47307 3.12155 9.47824 3.07416 9.48856 3.02075C9.5928 2.47723 9.58934 1.79934 9.47995 1.26959C9.3852 0.807894 9.21293 0.440948 8.99069 0.229051C8.81325 0.0602219 8.63236 -0.0121334 8.4153 0.00164858C7.91742 0.0309351 7.51603 0.603748 7.35753 1.50646C7.33168 1.65204 7.3093 1.82259 7.3093 1.86911C7.3093 1.88719 7.30584 1.90183 7.30154 1.90183C7.29723 1.90183 7.26365 1.8846 7.22746 1.86308C6.8433 1.63567 6.41605 1.51422 6.00001 1.51422C5.58397 1.51422 5.15672 1.63567 4.77255 1.86308C4.73637 1.8846 4.70279 1.90183 4.69847 1.90183C4.69417 1.90183 4.69071 1.88719 4.69071 1.86911C4.69071 1.82087 4.66746 1.64515 4.64249 1.50646C4.49863 0.695914 4.16873 0.15928 3.73029 0.024044C3.67 0.00595522 3.49858 -0.00610353 3.43742 0.00337157ZM3.58386 0.704529C3.7079 0.802726 3.84571 1.08353 3.92496 1.39793C3.9396 1.45478 3.9551 1.52025 3.95942 1.54436C3.96286 1.56763 3.97233 1.62017 3.98009 1.66065C4.01368 1.84326 4.02918 2.04052 4.03091 2.28084L4.03177 2.51772L3.97233 2.60557L3.91291 2.6943H3.77422C3.61229 2.6943 3.4512 2.71498 3.29701 2.75632C3.24189 2.7701 3.18848 2.78389 3.17815 2.78647C3.16178 2.78992 3.1592 2.78474 3.14973 2.71411C3.0989 2.3308 3.10149 1.90615 3.15748 1.55297C3.21949 1.15933 3.36421 0.802726 3.50547 0.697638C3.53907 0.672658 3.54509 0.673519 3.58386 0.704529ZM8.4954 0.698498C8.58068 0.761379 8.67457 0.928485 8.74434 1.1421C8.88474 1.56934 8.92437 2.15594 8.85029 2.71411C8.84082 2.78474 8.83823 2.78992 8.82186 2.78647C8.81153 2.78389 8.75812 2.7701 8.703 2.75632C8.54881 2.71498 8.38773 2.6943 8.2258 2.6943H8.08711L8.02768 2.60557L7.96825 2.51772L7.9691 2.28084C7.97083 1.94663 8.00184 1.68563 8.07591 1.39535C8.1543 1.08353 8.29298 0.802726 8.41615 0.704529C8.45492 0.673519 8.46095 0.672658 8.4954 0.698498Z" fill="black"/>
<path d="M5.86646 5.03382C5.67953 5.05192 5.62872 5.05881 5.53913 5.07691C5.39355 5.10705 5.19888 5.17424 5.06365 5.24056C4.59335 5.47055 4.26947 5.85386 4.17041 6.29746C4.1506 6.38533 4.14801 6.41461 4.14801 6.56277C4.14801 6.7092 4.1506 6.74107 4.16955 6.82462C4.30134 7.40433 4.83538 7.83244 5.52621 7.91082C5.67609 7.92719 6.32385 7.92719 6.47372 7.91082C7.02845 7.84794 7.50565 7.54732 7.72013 7.12524C7.77697 7.01241 7.80454 6.93918 7.83038 6.82462C7.84934 6.74107 7.85192 6.7092 7.85192 6.56277C7.85192 6.41461 7.84934 6.38533 7.82952 6.29746C7.68566 5.65316 7.06031 5.14582 6.29369 5.04934C6.19377 5.03728 5.93192 5.02694 5.86646 5.03382ZM6.1886 5.50241C6.44444 5.52998 6.70199 5.62129 6.90871 5.75911C7.01983 5.83319 7.17661 5.98823 7.24379 6.08988C7.32648 6.21563 7.37385 6.34397 7.39539 6.49989C7.40486 6.57138 7.3997 6.62565 7.37385 6.74107C7.33336 6.91334 7.2076 7.09337 7.03792 7.21913C6.95867 7.27684 6.79415 7.36041 6.69337 7.39313C6.50215 7.45428 6.37724 7.46548 5.93105 7.46204C5.63992 7.45945 5.58822 7.45687 5.50467 7.44137C5.21957 7.38796 4.99388 7.27426 4.83023 7.10113C4.69757 6.96158 4.63727 6.83411 4.60454 6.62824C4.5899 6.53262 4.61746 6.37413 4.67345 6.24061C4.7415 6.07781 4.91722 5.8754 5.09122 5.75911C5.29277 5.62473 5.55808 5.52913 5.80185 5.50329C5.89574 5.49294 6.09471 5.49294 6.1886 5.50241Z" fill="black"/>
<path d="M5.67097 6.13124C5.6055 6.16655 5.55985 6.25613 5.57363 6.32245C5.58913 6.39395 5.65201 6.46631 5.7502 6.52575C5.80275 6.55762 5.8062 6.56192 5.80878 6.59379C5.8105 6.61274 5.80361 6.66701 5.79414 6.71525C5.7838 6.76262 5.77604 6.81259 5.77604 6.82637C5.77691 6.86341 5.81137 6.9237 5.84754 6.95299C5.87942 6.97883 5.88545 6.97969 5.97503 6.98227C6.05686 6.98486 6.07409 6.98313 6.10681 6.96763C6.19124 6.92628 6.21276 6.85048 6.18175 6.70491C6.15591 6.58346 6.16108 6.56451 6.22569 6.52747C6.29373 6.48784 6.36609 6.41807 6.38762 6.37069C6.42897 6.28026 6.39106 6.17775 6.29976 6.13037C6.27737 6.11917 6.2498 6.11401 6.20932 6.11401C6.14644 6.11401 6.10596 6.12866 6.03188 6.17602L5.98967 6.20274L5.96297 6.18637C5.85358 6.12176 5.83377 6.11401 5.76743 6.11487C5.72006 6.11487 5.69422 6.11917 5.67097 6.13124Z" fill="black"/>
<path d="M3.57953 5.13113C3.42707 5.17937 3.31337 5.29135 3.2548 5.45071C3.22638 5.52651 3.21259 5.64625 3.22465 5.71084C3.25307 5.86503 3.37969 6.00543 3.52355 6.0442C3.70444 6.09157 3.83967 6.06056 3.9594 5.94169C4.02917 5.87364 4.06708 5.8142 4.10498 5.71773C4.13253 5.64969 4.13426 5.63763 4.13426 5.54115L4.13512 5.43779L4.09895 5.36371C4.04122 5.24656 3.937 5.15956 3.81641 5.12769C3.74836 5.11046 3.63897 5.11133 3.57953 5.13113Z" fill="black"/>
<path d="M8.18013 5.12852C8.06212 5.16039 7.95703 5.24824 7.90104 5.36367L7.86487 5.43775L7.86573 5.54112C7.86573 5.63759 7.86745 5.64965 7.89501 5.71769C7.93292 5.81417 7.97082 5.8736 8.04058 5.94165C8.16032 6.06052 8.29555 6.09153 8.47645 6.04416C8.58067 6.01659 8.68489 5.92873 8.73485 5.82622C8.77792 5.73923 8.78825 5.67635 8.77448 5.57728C8.74261 5.35075 8.60995 5.18623 8.41269 5.12852C8.35499 5.11129 8.24301 5.11129 8.18013 5.12852Z" fill="black"/>
</g>
<defs>
<clipPath id="clip0_4_18">
<rect width="12" height="12" fill="white"/>
</clipPath>
</defs>
</svg>
