<svg width="24" height="24" viewBox="0 0 24 24" fill="none" xmlns="http://www.w3.org/2000/svg">
<g clip-path="url(#clip0_4_18)">
<path d="M6.87484 0.00674313C6.65088 0.0429207 6.38213 0.160066 6.19263 0.304778C5.61897 0.74063 5.17449 1.66575 4.9867 2.81826C4.91608 3.25411 4.86786 3.8588 4.86786 4.32051C4.86786 4.86489 4.93159 5.56086 5.0229 6.04151C5.04358 6.14833 5.0539 6.24309 5.0453 6.24998C5.03841 6.25686 4.95399 6.32577 4.85923 6.40156C4.53537 6.65997 4.16497 7.05794 3.90999 7.42145C3.42075 8.11571 3.10377 8.90473 2.9711 9.7592C2.91942 10.0969 2.90565 10.7791 2.94698 11.1167C3.03829 11.8954 3.27259 12.5535 3.67398 13.1565L3.80491 13.3511L3.767 13.4149C3.49825 13.8662 3.26913 14.5192 3.16234 15.1462C3.07792 15.6424 3.06758 15.775 3.06758 16.44C3.06758 17.1102 3.0762 17.2428 3.15545 17.7062C3.25019 18.261 3.44314 18.8484 3.65847 19.2395C3.72912 19.367 3.90139 19.6323 3.92208 19.6461C3.92896 19.6495 3.90828 19.7132 3.87554 19.7873C3.62747 20.33 3.41558 21.0518 3.32773 21.6599C3.2657 22.0768 3.25707 22.2112 3.25707 22.6505C3.25707 23.2104 3.2881 23.4826 3.40523 23.9288L3.42246 23.9942H4.1598H4.89885L4.85063 23.9029C4.5526 23.3517 4.52503 22.3283 4.78172 21.3068C4.89885 20.8347 5.0315 20.4885 5.27959 20.0113L5.42775 19.7218V19.5444C5.42775 19.379 5.4243 19.3601 5.3709 19.2515C5.32953 19.1688 5.27442 19.0982 5.17623 19.0017C5.0091 18.8398 4.88851 18.6692 4.79206 18.4591C4.36827 17.5391 4.28556 16.173 4.58359 15.0084C4.70764 14.5226 4.91265 14.0902 5.12798 13.8542C5.27442 13.6922 5.35022 13.5114 5.35022 13.3236C5.35022 13.1289 5.28131 12.9687 5.12626 12.8016C4.68179 12.3261 4.40787 11.7472 4.30967 11.0737C4.17014 10.1141 4.42338 9.06837 4.99879 8.23976C5.56211 7.42659 6.35285 6.90461 7.23663 6.76508C7.43473 6.73234 7.80513 6.73751 8.01186 6.77542C8.23755 6.81504 8.3788 6.80296 8.52353 6.73405C8.70269 6.64966 8.79228 6.54455 8.89735 6.30337C8.99038 6.08805 9.06274 5.97089 9.25741 5.72799C9.49171 5.43684 9.71737 5.23872 10.0791 4.99925C10.4926 4.72879 10.9629 4.5324 11.4315 4.43764C11.602 4.40319 11.6813 4.39801 12 4.39801C12.3187 4.39801 12.398 4.40319 12.5685 4.43764C13.2559 4.5772 13.9381 4.93208 14.4825 5.4351C14.5996 5.54363 14.8804 5.89163 14.97 6.03637C15.0045 6.09319 15.0648 6.21381 15.1027 6.30337C15.2078 6.54455 15.2973 6.64966 15.4765 6.73405C15.6161 6.80125 15.7625 6.81504 15.9795 6.77885C16.3224 6.72028 16.586 6.72545 16.9219 6.79436C18.0658 7.0252 19.0616 7.96755 19.5026 9.23033C19.8867 10.338 19.7782 11.4975 19.2063 12.3829C19.1098 12.5328 19.0133 12.6534 18.8738 12.8016C18.5723 13.1237 18.5723 13.5234 18.8721 13.8542C19.3648 14.3934 19.6731 15.7199 19.5801 16.8896C19.5181 17.6614 19.32 18.3523 19.0478 18.7433C18.9995 18.8122 18.8996 18.9294 18.8238 19.0017C18.7256 19.0982 18.6705 19.1688 18.6291 19.2515C18.5757 19.3601 18.5723 19.379 18.5723 19.5444V19.7218L18.7204 20.0113C18.9685 20.4885 19.1012 20.8347 19.2183 21.3068C19.4716 22.3146 19.4492 23.3172 19.1597 23.8874C19.1356 23.9357 19.1149 23.9805 19.1149 23.9856C19.1149 23.9908 19.444 23.9942 19.8471 23.9942H20.5776L20.5965 23.9202C20.6069 23.8806 20.6241 23.8203 20.6327 23.7858C20.6516 23.71 20.6895 23.4861 20.7206 23.2707C20.7498 23.0536 20.7498 22.2543 20.7206 22.0131C20.6103 21.1379 20.426 20.4437 20.1245 19.7873C20.0918 19.7132 20.0711 19.6495 20.078 19.6461C20.0866 19.6409 20.1348 19.572 20.1865 19.4944C20.5621 18.9259 20.7929 18.211 20.9101 17.2669C20.9411 17.0068 20.9411 15.8887 20.9101 15.6389C20.8273 14.9946 20.7274 14.557 20.5621 14.1143C20.4931 13.93 20.3105 13.5406 20.233 13.4149L20.1951 13.3511L20.326 13.1565C20.7274 12.5535 20.9617 11.8954 21.053 11.1167C21.0944 10.7791 21.0806 10.0969 21.0289 9.7592C20.8945 8.90299 20.5793 8.11742 20.09 7.42145C19.8351 7.05794 19.4647 6.65997 19.1408 6.40156C19.046 6.32577 18.9616 6.25686 18.9547 6.24998C18.9461 6.24309 18.9565 6.14833 18.9771 6.04151C19.1856 4.95445 19.1787 3.59868 18.9599 2.53918C18.7704 1.61579 18.4259 0.881896 17.9814 0.458102C17.6265 0.120444 17.2647 -0.0242668 16.8306 0.00329717C15.8348 0.0618703 15.0321 1.2075 14.7151 3.01293C14.6634 3.30407 14.6186 3.64519 14.6186 3.73821C14.6186 3.77438 14.6117 3.80366 14.6031 3.80366C14.5945 3.80366 14.5273 3.76921 14.4549 3.72615C13.6866 3.27133 12.8321 3.02844 12 3.02844C11.1679 3.02844 10.3134 3.27133 9.5451 3.72615C9.47274 3.76921 9.40557 3.80366 9.39694 3.80366C9.38834 3.80366 9.38143 3.77438 9.38143 3.73821C9.38143 3.64173 9.33492 3.2903 9.28498 3.01293C8.99726 1.39183 8.33746 0.318559 7.46059 0.048088C7.34 0.0119104 6.99717 -0.0122071 6.87484 0.00674313ZM7.16772 1.40906C7.41579 1.60545 7.69142 2.16706 7.84993 2.79587C7.87921 2.90956 7.91021 3.0405 7.91884 3.08872C7.92572 3.13526 7.94466 3.24034 7.96017 3.3213C8.02737 3.68653 8.05837 4.08104 8.06182 4.56169L8.06354 5.03545L7.94466 5.21115L7.82581 5.38859H7.54844C7.22458 5.38859 6.9024 5.42996 6.59403 5.51264C6.48378 5.54021 6.37696 5.56778 6.35631 5.57295C6.32357 5.57983 6.31839 5.56949 6.29945 5.42822C6.1978 4.66159 6.20298 3.81229 6.31497 3.10595C6.43898 2.31867 6.72842 1.60545 7.01094 1.39528C7.07813 1.34532 7.09019 1.34704 7.16772 1.40906ZM16.9908 1.397C17.1614 1.52276 17.3491 1.85697 17.4887 2.28421C17.7695 3.13869 17.8487 4.31188 17.7006 5.42822C17.6816 5.56949 17.6765 5.57983 17.6437 5.57295C17.6231 5.56778 17.5162 5.54021 17.406 5.51264C17.0976 5.42996 16.7755 5.38859 16.4516 5.38859H16.1742L16.0554 5.21115L15.9365 5.03545L15.9382 4.56169C15.9417 3.89326 16.0037 3.37127 16.1518 2.7907C16.3086 2.16707 16.586 1.60545 16.8323 1.40906C16.9098 1.34704 16.9219 1.34532 16.9908 1.397Z" fill="black"/>
<path d="M11.733 10.0675C11.3591 10.1037 11.2575 10.1175 11.0783 10.1537C10.7872 10.214 10.3978 10.3484 10.1274 10.481C9.18675 10.941 8.539 11.7076 8.34088 12.5948C8.30125 12.7705 8.29608 12.8291 8.29608 13.1254C8.29608 13.4183 8.30125 13.482 8.33916 13.6491C8.60274 14.8085 9.67083 15.6648 11.0525 15.8215C11.3522 15.8543 12.6478 15.8543 12.9475 15.8215C14.057 15.6958 15.0114 15.0945 15.4403 14.2504C15.554 14.0247 15.6091 13.8782 15.6608 13.6491C15.6987 13.482 15.7039 13.4183 15.7039 13.1254C15.7039 12.8291 15.6987 12.7705 15.6591 12.5948C15.3714 11.3062 14.1207 10.2915 12.5874 10.0986C12.3876 10.0744 11.8639 10.0538 11.733 10.0675ZM12.3773 11.0047C12.8889 11.0598 13.404 11.2425 13.8175 11.5181C14.0397 11.6663 14.3533 11.9763 14.4876 12.1796C14.653 12.4311 14.7478 12.6878 14.7908 12.9997C14.8098 13.1426 14.7995 13.2512 14.7478 13.482C14.6668 13.8266 14.4153 14.1866 14.0759 14.4381C13.9174 14.5536 13.5884 14.7207 13.3868 14.7861C13.0044 14.9084 12.7545 14.9308 11.8622 14.924C11.2799 14.9188 11.1765 14.9136 11.0094 14.8826C10.4392 14.7758 9.98783 14.5484 9.66051 14.2021C9.39519 13.923 9.2746 13.6681 9.20915 13.2564C9.17987 13.0651 9.23498 12.7481 9.34697 12.4811C9.48307 12.1555 9.8345 11.7507 10.1825 11.5181C10.5856 11.2493 11.1162 11.0581 11.6038 11.0064C11.7915 10.9858 12.1895 10.9858 12.3773 11.0047Z" fill="black"/>
<path d="M11.3419 12.2624C11.211 12.333 11.1197 12.5121 11.1473 12.6448C11.1783 12.7878 11.304 12.9325 11.5004 13.0514C11.6055 13.1151 11.6124 13.1237 11.6176 13.1875C11.621 13.2254 11.6072 13.3339 11.5883 13.4304C11.5676 13.5251 11.5521 13.625 11.5521 13.6526C11.5538 13.7267 11.6227 13.8473 11.6951 13.9059C11.7588 13.9575 11.7709 13.9592 11.9501 13.9644C12.1137 13.9696 12.1482 13.9661 12.2136 13.9351C12.3825 13.8524 12.4255 13.7008 12.3635 13.4097C12.3118 13.1668 12.3222 13.1289 12.4514 13.0548C12.5875 12.9756 12.7322 12.836 12.7752 12.7413C12.8579 12.5604 12.7821 12.3554 12.5995 12.2606C12.5547 12.2382 12.4996 12.2279 12.4186 12.2279C12.2929 12.2279 12.2119 12.2572 12.0638 12.3519L11.9793 12.4053L11.9259 12.3726C11.7072 12.2434 11.6675 12.2279 11.5349 12.2296C11.4401 12.2296 11.3884 12.2382 11.3419 12.2624Z" fill="black"/>
<path d="M7.15907 10.2623C6.85415 10.3587 6.62674 10.5827 6.50961 10.9014C6.45275 11.053 6.42519 11.2925 6.4493 11.4217C6.50615 11.7301 6.75939 12.0109 7.04711 12.0884C7.40888 12.1831 7.67934 12.1211 7.91881 11.8834C8.05834 11.7473 8.13416 11.6284 8.20995 11.4355C8.26506 11.2994 8.26852 11.2753 8.26852 11.0823L8.27023 10.8756L8.1979 10.7274C8.08245 10.4931 7.87401 10.3191 7.63283 10.2554C7.49673 10.2209 7.27794 10.2227 7.15907 10.2623Z" fill="black"/>
<path d="M16.3603 10.2572C16.1242 10.3209 15.9141 10.4966 15.8021 10.7275L15.7297 10.8756L15.7315 11.0824C15.7315 11.2753 15.7349 11.2994 15.79 11.4355C15.8658 11.6285 15.9416 11.7473 16.0812 11.8834C16.3206 12.1212 16.5911 12.1832 16.9529 12.0884C17.1613 12.0333 17.3698 11.8576 17.4697 11.6526C17.5558 11.4786 17.5765 11.3528 17.549 11.1547C17.4852 10.7016 17.2199 10.3726 16.8254 10.2572C16.71 10.2227 16.486 10.2227 16.3603 10.2572Z" fill="black"/>
</g>
<defs>
<clipPath id="clip0_4_18">
<rect width="24" height="24" fill="white"/>
</clipPath>
</defs>
</svg>
