<svg width="11" height="13" viewBox="0 0 11 13" fill="none" xmlns="http://www.w3.org/2000/svg">
<path d="M8.18867 0.466L5.02367 3.634H8.18867V0.466ZM8.18867 0.466V1.33333M5.01633 0V12M8.18867 6.80133L5.02367 3.63333M8.18867 6.80133V11.343L5.02367 8.175M8.18867 6.80133L5.02333 3.63333M8.18867 6.80133L8.18833 8.15667H9.54667V3.63333H5.02333M5.02367 3.63333V8.175M5.02367 3.63333L1.85833 6.80133M5.02367 8.175L1.85833 11.343V6.80133M1.85833 6.80133L1.858 8.15667H0.5V3.63333H5.02333M1.85833 6.80133L5.02333 3.63333M5.02333 3.634L1.858 0.466V3.634H5.02333Z" stroke="black" stroke-miterlimit="10"/>
</svg>
