<svg width="32" height="36" viewBox="0 0 32 36" fill="none" xmlns="http://www.w3.org/2000/svg">
<path d="M24.066 1.398L14.571 10.902H24.066V1.398ZM24.066 1.398V4M14.549 0V36M24.066 20.404L14.571 10.9M24.066 20.404V34.029L14.571 24.525M24.066 20.404L14.57 10.9M24.066 20.404L24.065 24.47H28.14V10.9H14.57M14.571 10.9V24.525M14.571 10.9L5.075 20.404M14.571 24.525L5.075 34.029V20.404M5.075 20.404L5.074 24.47H1V10.9H14.57M5.075 20.404L14.57 10.9M14.57 10.902L5.074 1.398V10.902H14.57Z" stroke="black" stroke-miterlimit="10"/>
</svg>
