<?xml version="1.0" encoding="UTF-8"?>
<!--Generator: Apple Native CoreSVG 341-->
<!DOCTYPE svg
PUBLIC "-//W3C//DTD SVG 1.1//EN"
       "http://www.w3.org/Graphics/SVG/1.1/DTD/svg11.dtd">
<svg version="1.1" xmlns="http://www.w3.org/2000/svg" xmlns:xlink="http://www.w3.org/1999/xlink" viewBox="0 0 37.7051 32.9293">
 <g>
  <rect height="32.9293" opacity="0" width="37.7051" x="0" y="0"/>
  <path d="M0 12.5008C0 17.0535 1.65234 21.2723 4.57031 24.4363C5.23828 25.1746 6.22266 25.1746 6.78516 24.5242C7.34766 23.8914 7.17188 23.0652 6.53906 22.3445C4.18359 19.7254 2.86523 16.2801 2.86523 12.5008C2.86523 8.72147 4.18359 5.27616 6.53906 2.65702C7.17188 1.93631 7.34766 1.11014 6.78516 0.477328C6.22266-0.173062 5.23828-0.173062 4.57031 0.565219C1.65234 3.72928 0 7.94803 0 12.5008ZM30.5332 24.5242C31.0957 25.1746 32.0801 25.1746 32.748 24.4363C35.666 21.2723 37.3184 17.0535 37.3184 12.5008C37.3184 7.94803 35.666 3.72928 32.748 0.565219C32.0801-0.173062 31.0957-0.173062 30.5332 0.477328C29.9707 1.11014 30.1465 1.93631 30.7793 2.65702C33.1348 5.27616 34.4531 8.72147 34.4531 12.5008C34.4531 16.2801 33.1348 19.7254 30.7793 22.3445C30.1465 23.0652 29.9707 23.8914 30.5332 24.5242Z" fill="black" fill-opacity="0.85"/>
  <path d="M7.40039 12.5008C7.40039 15.0848 8.2793 17.493 9.80859 19.3914C10.4238 20.2 11.4785 20.1824 12.0586 19.5144C12.6211 18.8816 12.3926 18.0906 11.8301 17.3348C10.7754 16.034 10.2656 14.3289 10.2656 12.5008C10.2656 10.6726 10.8281 9.0203 11.8301 7.66678C12.375 6.89334 12.6211 6.11991 12.0586 5.48709C11.4785 4.81913 10.4238 4.80155 9.80859 5.61014C8.2793 7.50858 7.40039 9.91678 7.40039 12.5008ZM25.2598 19.5144C25.8398 20.1824 26.8945 20.2 27.5098 19.3914C29.0391 17.493 29.918 15.0848 29.918 12.5008C29.918 9.91678 29.0391 7.50858 27.5098 5.61014C26.8945 4.80155 25.8398 4.81913 25.2598 5.48709C24.6973 6.11991 24.9434 6.89334 25.4883 7.66678C26.4902 9.0203 27.0527 10.6726 27.0527 12.5008C27.0527 14.3289 26.543 16.034 25.4883 17.3348C24.9258 18.0906 24.6973 18.8816 25.2598 19.5144Z" fill="black" fill-opacity="0.85"/>
  <path d="M15.5039 12.5008C15.5039 13.7664 16.2246 14.8562 17.3145 15.3484L17.3145 31.1512C17.3145 32.0476 17.8594 32.6629 18.668 32.6629C19.4941 32.6629 20.0039 32.0652 20.0039 31.1512L20.0039 15.3484C21.0762 14.8562 21.8145 13.7488 21.8145 12.5008C21.8145 10.743 20.4258 9.31913 18.668 9.31913C16.8926 9.31913 15.5039 10.743 15.5039 12.5008Z" fill="black" fill-opacity="0.85"/>
 </g>
</svg>
