<?xml version="1.0" encoding="UTF-8"?>
<!--Generator: Apple Native CoreSVG 341-->
<!DOCTYPE svg
PUBLIC "-//W3C//DTD SVG 1.1//EN"
       "http://www.w3.org/Graphics/SVG/1.1/DTD/svg11.dtd">
<svg version="1.1" xmlns="http://www.w3.org/2000/svg" xmlns:xlink="http://www.w3.org/1999/xlink" viewBox="0 0 12.9785 10.9764">
 <g>
  <rect height="10.9764" opacity="0" width="12.9785" x="0" y="0"/>
  <path d="M0 4.16692C0 5.6845 0.550781 7.09075 1.52344 8.14544C1.74609 8.39153 2.07422 8.39153 2.26172 8.17473C2.44922 7.9638 2.39062 7.68841 2.17969 7.44817C1.39453 6.57513 0.955078 5.42669 0.955078 4.16692C0.955078 2.90716 1.39453 1.75872 2.17969 0.885672C2.39062 0.645438 2.44922 0.370047 2.26172 0.159109C2.07422-0.0576874 1.74609-0.0576874 1.52344 0.188406C0.550781 1.24309 0 2.64934 0 4.16692ZM10.1777 8.17473C10.3652 8.39153 10.6934 8.39153 10.916 8.14544C11.8887 7.09075 12.4395 5.6845 12.4395 4.16692C12.4395 2.64934 11.8887 1.24309 10.916 0.188406C10.6934-0.0576874 10.3652-0.0576874 10.1777 0.159109C9.99023 0.370047 10.0488 0.645438 10.2598 0.885672C11.0449 1.75872 11.4844 2.90716 11.4844 4.16692C11.4844 5.42669 11.0449 6.57513 10.2598 7.44817C10.0488 7.68841 9.99023 7.9638 10.1777 8.17473Z" fill="black" fill-opacity="0.85"/>
  <path d="M2.4668 4.16692C2.4668 5.02825 2.75977 5.83098 3.26953 6.4638C3.47461 6.73333 3.82617 6.72747 4.01953 6.50481C4.20703 6.29388 4.13086 6.0302 3.94336 5.77825C3.5918 5.34466 3.42188 4.7763 3.42188 4.16692C3.42188 3.55755 3.60938 3.00677 3.94336 2.55559C4.125 2.29778 4.20703 2.03997 4.01953 1.82903C3.82617 1.60638 3.47461 1.60052 3.26953 1.87005C2.75977 2.50286 2.4668 3.30559 2.4668 4.16692ZM8.41992 6.50481C8.61328 6.72747 8.96484 6.73333 9.16992 6.4638C9.67969 5.83098 9.97266 5.02825 9.97266 4.16692C9.97266 3.30559 9.67969 2.50286 9.16992 1.87005C8.96484 1.60052 8.61328 1.60638 8.41992 1.82903C8.23242 2.03997 8.31445 2.29778 8.49609 2.55559C8.83008 3.00677 9.01758 3.55755 9.01758 4.16692C9.01758 4.7763 8.84766 5.34466 8.49609 5.77825C8.30859 6.0302 8.23242 6.29388 8.41992 6.50481Z" fill="black" fill-opacity="0.85"/>
  <path d="M5.16797 4.16692C5.16797 4.5888 5.4082 4.95208 5.77148 5.11614L5.77148 10.3837C5.77148 10.6825 5.95312 10.8876 6.22266 10.8876C6.49805 10.8876 6.66797 10.6884 6.66797 10.3837L6.66797 5.11614C7.02539 4.95208 7.27148 4.58294 7.27148 4.16692C7.27148 3.58098 6.80859 3.10638 6.22266 3.10638C5.63086 3.10638 5.16797 3.58098 5.16797 4.16692Z" fill="black" fill-opacity="0.85"/>
 </g>
</svg>
