<svg width="24" height="24" viewBox="0 0 24 24" fill="none" xmlns="http://www.w3.org/2000/svg">
<path d="M23.6099 9.93974C23.0211 9.54812 21.4756 9.3801 20.3517 9.68053C20.2905 8.57248 19.7131 7.63808 18.6573 6.82422L18.2667 6.56438L18.0054 6.95414C17.4936 7.72365 17.2778 8.74862 17.3542 9.68116C17.4141 10.2558 17.6161 10.901 18.0054 11.3695C16.5426 12.2096 15.194 12.0184 9.22169 12.0184H0.00187985C-0.0246247 13.3532 0.19246 15.921 1.84142 18.0103C2.0238 18.2414 2.22258 18.4643 2.43967 18.6798C3.78131 20.009 5.80701 20.984 8.83737 20.9865C13.4599 20.9909 17.4204 18.5174 19.8298 12.5375C20.6231 12.55 22.715 12.678 23.7393 10.7192C23.7639 10.6868 23.9999 10.2002 23.9999 10.2002L23.6099 9.94099V9.93974ZM6.01905 8.71989H3.42665V11.2858H6.01905V8.71989ZM9.36872 8.71989H6.77632V11.2858H9.36872V8.71989ZM12.7184 8.71989H10.126V11.2858H12.7184V8.71989ZM16.0681 8.71989H13.4757V11.2858H16.0681V8.71989ZM2.66938 8.71989H0.0769761V11.2858H2.66938V8.71989ZM6.01905 5.4782H3.42665V8.04407H6.01905V5.4782ZM9.36872 5.4782H6.77632V8.04407H9.36872V5.4782ZM12.7184 5.4782H10.126V8.04407H12.7184V5.4782ZM12.7184 2.2365H10.126V4.803H12.7184V2.2365Z" fill="black"/>
</svg>
