<svg width="36" height="36" viewBox="0 0 36 36" fill="none" xmlns="http://www.w3.org/2000/svg">
<path d="M35.4148 14.9096C34.5317 14.3222 32.2135 14.0701 30.5276 14.5208C30.4358 12.8587 29.5696 11.4571 27.986 10.2363L27.4 9.84657L27.0081 10.4312C26.2405 11.5855 25.9167 13.1229 26.0313 14.5217C26.1212 15.3837 26.4241 16.3515 27.0081 17.0542C24.8139 18.3143 22.7911 18.0276 13.8325 18.0276H0.00281977C-0.0369371 20.0298 0.288691 23.8814 2.76214 27.0154C3.0357 27.362 3.33388 27.6965 3.6595 28.0197C5.67196 30.0135 8.71052 31.476 13.2561 31.4797C20.1898 31.4863 26.1307 27.7762 29.7447 18.8062C30.9346 18.8249 34.0726 19.017 35.6089 16.0789C35.6458 16.0302 35.9998 15.3003 35.9998 15.3003L35.4148 14.9115V14.9096ZM9.02857 13.0798H5.13997V16.9286H9.02857V13.0798ZM14.0531 13.0798H10.1645V16.9286H14.0531V13.0798ZM19.0776 13.0798H15.189V16.9286H19.0776V13.0798ZM24.1021 13.0798H20.2135V16.9286H24.1021V13.0798ZM4.00406 13.0798H0.115464V16.9286H4.00406V13.0798ZM9.02857 8.21729H5.13997V12.0661H9.02857V8.21729ZM14.0531 8.21729H10.1645V12.0661H14.0531V8.21729ZM19.0776 8.21729H15.189V12.0661H19.0776V8.21729ZM19.0776 3.35475H15.189V7.2045H19.0776V3.35475Z" fill="black"/>
</svg>
