<svg width="12" height="12" viewBox="0 0 12 12" fill="none" xmlns="http://www.w3.org/2000/svg">
<path d="M11.8049 4.96987C11.5106 4.77406 10.7378 4.69005 10.1759 4.84027C10.1453 4.28624 9.85654 3.81904 9.32866 3.41211L9.13334 3.28219L9.00271 3.47707C8.74682 3.86182 8.63891 4.37431 8.67709 4.84058C8.70706 5.1279 8.80803 5.4505 9.00271 5.68473C8.27131 6.10478 7.59702 6.00921 4.61084 6.00921H0.000939923C-0.0123124 6.6766 0.0962302 7.96048 0.920712 9.00513C1.0119 9.12068 1.11129 9.23217 1.21983 9.33992C1.89065 10.0045 2.90351 10.492 4.41868 10.4932C6.72995 10.4954 8.71022 9.25872 9.91491 6.26874C10.3115 6.27498 11.3575 6.339 11.8696 5.35962C11.8819 5.34338 11.9999 5.1001 11.9999 5.1001L11.8049 4.9705V4.96987ZM3.00952 4.35995H1.71332V5.64288H3.00952V4.35995ZM4.68436 4.35995H3.38816V5.64288H4.68436V4.35995ZM6.3592 4.35995H5.063V5.64288H6.3592V4.35995ZM8.03403 4.35995H6.73783V5.64288H8.03403V4.35995ZM1.33469 4.35995H0.0384881V5.64288H1.33469V4.35995ZM3.00952 2.7391H1.71332V4.02203H3.00952V2.7391ZM4.68436 2.7391H3.38816V4.02203H4.68436V2.7391ZM6.3592 2.7391H5.063V4.02203H6.3592V2.7391ZM6.3592 1.11825H5.063V2.4015H6.3592V1.11825Z" fill="black"/>
</svg>
