<svg width="12" height="12" viewBox="0 0 12 12" fill="none" xmlns="http://www.w3.org/2000/svg">
<g clip-path="url(#clip0_7_2)">
<path fill-rule="evenodd" clip-rule="evenodd" d="M8.402 0.9785L12.012 3.031V3.0745L8.365 5.105L8.3735 4.0465L7.963 4.0315C7.4335 4.0175 7.1575 4.0325 6.829 4.0865C6.297 4.174 5.81 4.375 5.2555 4.7625L4.1725 5.515C4.0305 5.6125 3.925 5.683 3.8325 5.7425L3.575 5.9035L3.3765 6.0205L3.569 6.1355L3.834 6.3045C4.072 6.4615 4.419 6.7025 5.1845 7.2375C5.7395 7.625 6.226 7.826 6.758 7.9135L6.908 7.936C7.255 7.9815 7.5955 7.983 8.3205 7.9525L8.3315 6.873L11.9415 8.9255V8.969L8.2945 11L8.3015 10.069L7.984 10.08C7.291 10.101 6.9155 10.081 6.415 9.999C5.568 9.859 4.785 9.536 3.9745 8.9695L2.8955 8.2195C2.77139 8.13392 2.64553 8.0509 2.518 7.9705L2.2845 7.8305C2.15839 7.75785 2.03172 7.68618 1.9045 7.6155C1.454 7.365 0.2815 7.058 0 7.058V4.944L0.07 4.946C0.352 4.9425 1.525 4.635 1.9745 4.384L2.4825 4.094L2.7015 3.957C2.9155 3.817 3.2375 3.594 4.0445 3.0305C4.855 2.464 5.6375 2.1405 6.485 2.001C7.061 1.906 7.472 1.8945 8.392 1.932L8.402 0.9785Z" fill="black" style="fill:black;fill-opacity:1;"/>
</g>
<defs>
<clipPath id="clip0_7_2">
<rect width="12" height="12" fill="white" style="fill:white;fill-opacity:1;"/>
</clipPath>
</defs>
</svg>
