<svg width="36" height="36" viewBox="0 0 36 36" fill="none" xmlns="http://www.w3.org/2000/svg">
<g clip-path="url(#clip0_7_2)">
<path fill-rule="evenodd" clip-rule="evenodd" d="M25.206 2.9355L36.036 9.093V9.2235L25.095 15.315L25.1205 12.1395L23.889 12.0945C22.3005 12.0525 21.4725 12.0975 20.487 12.2595C18.891 12.522 17.43 13.125 15.7665 14.2875L12.5175 16.545C12.0915 16.8375 11.775 17.049 11.4975 17.2275L10.725 17.7105L10.1295 18.0615L10.707 18.4065L11.502 18.9135C12.216 19.3845 13.257 20.1075 15.5535 21.7125C17.2185 22.875 18.678 23.478 20.274 23.7405L20.724 23.808C21.765 23.9445 22.7865 23.949 24.9615 23.8575L24.9945 20.619L35.8245 26.7765V26.907L24.8835 33L24.9045 30.207L23.952 30.24C21.873 30.303 20.7465 30.243 19.245 29.997C16.704 29.577 14.355 28.608 11.9235 26.9085L8.6865 24.6585C8.31416 24.4018 7.93658 24.1527 7.554 23.9115L6.8535 23.4915C6.47518 23.2735 6.09517 23.0585 5.7135 22.8465C4.362 22.095 0.8445 21.174 0 21.174V14.832L0.21 14.838C1.056 14.8275 4.575 13.905 5.9235 13.152L7.4475 12.282L8.1045 11.871C8.7465 11.451 9.7125 10.782 12.1335 9.0915C14.565 7.392 16.9125 6.4215 19.455 6.003C21.183 5.718 22.416 5.6835 25.176 5.796L25.206 2.9355Z" fill="black" style="fill:black;fill-opacity:1;"/>
</g>
<defs>
<clipPath id="clip0_7_2">
<rect width="36" height="36" fill="white" style="fill:white;fill-opacity:1;"/>
</clipPath>
</defs>
</svg>
