<svg width="24" height="24" viewBox="0 0 24 24" fill="none" xmlns="http://www.w3.org/2000/svg">
<g clip-path="url(#clip0_7_2)">
<path fill-rule="evenodd" clip-rule="evenodd" d="M16.804 1.957L24.024 6.062V6.149L16.73 10.21L16.747 8.093L15.926 8.063C14.867 8.035 14.315 8.065 13.658 8.173C12.594 8.348 11.62 8.75 10.511 9.525L8.345 11.03C8.061 11.225 7.85 11.366 7.665 11.485L7.15 11.807L6.753 12.041L7.138 12.271L7.668 12.609C8.144 12.923 8.838 13.405 10.369 14.475C11.479 15.25 12.452 15.652 13.516 15.827L13.816 15.872C14.51 15.963 15.191 15.966 16.641 15.905L16.663 13.746L23.883 17.851V17.938L16.589 22L16.603 20.138L15.968 20.16C14.582 20.202 13.831 20.162 12.83 19.998C11.136 19.718 9.57 19.072 7.949 17.939L5.791 16.439C5.54277 16.2678 5.29105 16.1018 5.036 15.941L4.569 15.661C4.31679 15.5157 4.06345 15.3724 3.809 15.231C2.908 14.73 0.563 14.116 0 14.116V9.888L0.14 9.892C0.704 9.885 3.05 9.27 3.949 8.768L4.965 8.188L5.403 7.914C5.831 7.634 6.475 7.188 8.089 6.061C9.71 4.928 11.275 4.281 12.97 4.002C14.122 3.812 14.944 3.789 16.784 3.864L16.804 1.957Z" fill="black" style="fill:black;fill-opacity:1;"/>
</g>
<defs>
<clipPath id="clip0_7_2">
<rect width="24" height="24" fill="white" style="fill:white;fill-opacity:1;"/>
</clipPath>
</defs>
</svg>
