<svg width="12" height="12" viewBox="0 0 12 12" fill="none" xmlns="http://www.w3.org/2000/svg">
<g clip-path="url(#clip0_1_14)">
<path d="M11.1444 4.91154C11.4167 4.09439 11.3229 3.19925 10.8875 2.45598C10.2328 1.31596 8.91649 0.729446 7.63096 1.00545C7.05907 0.361188 6.23743 -0.00519445 5.37604 5.56599e-05C4.06201 -0.0029444 2.89611 0.843074 2.49185 2.09335C1.64771 2.26623 0.919065 2.79462 0.492681 3.54351C-0.166958 4.68053 -0.01658 6.11381 0.864689 7.08883C0.592433 7.90597 0.686185 8.80112 1.12157 9.54438C1.77633 10.6844 3.09261 11.2709 4.37814 10.9949C4.94965 11.6392 5.77167 12.0056 6.63306 11.9999C7.94784 12.0033 9.11412 11.1565 9.51837 9.90514C10.3625 9.73226 11.0912 9.20388 11.5175 8.45499C12.1764 7.31796 12.0257 5.88581 11.1448 4.91079L11.1444 4.91154ZM6.63381 11.2158C6.10768 11.2165 5.59804 11.0324 5.19416 10.6953C5.21253 10.6855 5.24441 10.6679 5.26503 10.6552L7.65458 9.27513C7.77684 9.20575 7.85184 9.07562 7.85109 8.935V5.5663L8.86099 6.14944C8.87186 6.15469 8.87899 6.16519 8.88049 6.17719V8.96687C8.87899 10.2074 7.87434 11.2132 6.63381 11.2158ZM1.80221 9.15213C1.53858 8.69687 1.4437 8.16323 1.53408 7.64534C1.5517 7.65584 1.58283 7.67497 1.60495 7.68772L3.99451 9.06775C4.11563 9.13863 4.26564 9.13863 4.38714 9.06775L7.30433 7.38321V8.54949C7.30508 8.56149 7.29945 8.57311 7.29008 8.58061L4.87465 9.97527C3.79875 10.5948 2.42472 10.2265 1.80258 9.15213H1.80221ZM1.17332 3.93614C1.43583 3.48013 1.85021 3.13137 2.34372 2.95024C2.34372 2.97087 2.3426 3.00725 2.3426 3.03275V5.79318C2.34185 5.93343 2.41685 6.06356 2.53872 6.13294L5.45591 7.8171L4.44602 8.40024C4.43589 8.40699 4.42314 8.40811 4.41189 8.40324L1.99609 7.00746C0.92244 6.38569 0.554182 5.01204 1.17295 3.93652L1.17332 3.93614ZM9.47075 5.86706L6.55356 4.18252L7.56346 3.59976C7.57358 3.59301 7.58633 3.59188 7.59758 3.59676L10.0134 4.99141C11.0889 5.6128 11.4575 6.9887 10.8362 8.06423C10.5733 8.51949 10.1593 8.86825 9.66613 9.04975V6.20681C9.66725 6.06656 9.59263 5.93681 9.47112 5.86706H9.47075ZM10.4758 4.35427C10.4581 4.3434 10.427 4.32465 10.4049 4.3119L8.01534 2.93187C7.89421 2.86099 7.74421 2.86099 7.62271 2.93187L4.70552 4.6164V3.45013C4.70477 3.43813 4.7104 3.4265 4.71977 3.419L7.1352 2.02547C8.2111 1.40484 9.58663 1.77422 10.2069 2.85049C10.469 3.305 10.5639 3.83714 10.475 4.35427H10.4758ZM4.15651 6.43294L3.14624 5.84981C3.13536 5.84456 3.12824 5.83406 3.12674 5.82206V3.03237C3.12749 1.79034 4.13513 0.783822 5.37716 0.784572C5.90255 0.784572 6.41106 0.969076 6.81494 1.30508C6.79657 1.31483 6.76507 1.33246 6.74406 1.34521L4.35451 2.72524C4.23226 2.79462 4.15726 2.92437 4.15801 3.065L4.15651 6.43219V6.43294ZM4.70515 5.25017L6.00455 4.49978L7.30395 5.24979V6.7502L6.00455 7.50022L4.70515 6.7502V5.25017Z" fill="black"/>
</g>
<defs>
<clipPath id="clip0_1_14">
<rect width="12" height="12" fill="white"/>
</clipPath>
</defs>
</svg>
