<svg width="12" height="12" viewBox="0 0 12 12" fill="none" xmlns="http://www.w3.org/2000/svg">
<path d="M11.8741 2.32576C11.747 2.26348 11.6923 2.38217 11.6179 2.44247C11.5925 2.46192 11.571 2.4872 11.5495 2.51053C11.3637 2.70893 11.1466 2.8393 10.8631 2.82372C10.4485 2.80036 10.0945 2.93073 9.78163 3.24782C9.71514 2.85681 9.49417 2.62333 9.1578 2.47358C8.98182 2.39575 8.80386 2.31792 8.68064 2.14867C8.5946 2.0281 8.57113 1.89386 8.52811 1.76157C8.50071 1.68182 8.47334 1.60009 8.38142 1.58647C8.28169 1.57092 8.24257 1.65454 8.20346 1.72461C8.04702 2.01059 7.9864 2.32574 7.99225 2.64477C8.00594 3.36263 8.30906 3.93452 8.91136 4.34112C8.97982 4.38781 8.99741 4.43447 8.97591 4.5026C8.93483 4.64266 8.88593 4.77882 8.84293 4.91889C8.81554 5.00839 8.77446 5.02784 8.67866 4.9889C8.34816 4.85082 8.06263 4.64653 7.81036 4.39949C7.38209 3.98513 6.99489 3.52797 6.51187 3.17002C6.39846 3.08636 6.28502 3.00858 6.16767 2.93462C5.67486 2.45609 6.23221 2.0631 6.36128 2.01644C6.4962 1.9678 6.40821 1.80047 5.97211 1.80246C5.53601 1.80438 5.13708 1.9503 4.62864 2.14483C4.55434 2.17402 4.47608 2.19539 4.39591 2.2129C3.9344 2.12538 3.45527 2.10588 2.95465 2.16234C2.01205 2.26736 1.25918 2.71286 0.70575 3.4735C0.0408674 4.38781 -0.115574 5.4266 0.0760758 6.51018C0.277505 7.65208 0.860248 8.59752 1.75592 9.33679C2.68483 10.1032 3.75454 10.4787 4.97481 10.4067C5.71598 10.3639 6.54123 10.2647 7.47209 9.47685C7.70674 9.59358 7.95316 9.64023 8.36189 9.67525C8.67673 9.70444 8.97986 9.65971 9.21451 9.61109C9.58216 9.53326 9.55675 9.19281 9.42378 9.13058C8.34626 8.62869 8.58285 8.83294 8.36776 8.66757C8.91531 8.01979 9.74059 7.34667 10.0633 5.16592C10.0887 4.9928 10.0672 4.88385 10.0633 4.74378C10.0613 4.65821 10.0808 4.62515 10.1786 4.6154C10.4485 4.58427 10.7105 4.51037 10.9511 4.37808C11.6492 3.9968 11.9308 3.3704 11.9973 2.61949C12.0071 2.50471 11.9954 2.38601 11.8741 2.32576ZM5.79028 9.08386C4.74601 8.26296 4.23953 7.99252 4.03027 8.0042C3.83471 8.01588 3.86992 8.2396 3.91292 8.38552C3.95791 8.52945 4.01658 8.62869 4.0987 8.75511C4.15541 8.83877 4.19454 8.96324 4.04201 9.05666C3.70564 9.26481 3.12091 8.9866 3.09352 8.973C2.41301 8.57224 1.84393 8.04308 1.44301 7.31946C1.05581 6.62298 0.830933 5.876 0.79376 5.0784C0.783981 4.88583 0.84069 4.8177 1.03234 4.78273C1.28461 4.73603 1.54471 4.72628 1.79698 4.76323C2.86279 4.91889 3.77016 5.39549 4.53087 6.15028C4.96501 6.58019 5.29354 7.0938 5.63188 7.59569C5.99169 8.12868 6.3789 8.63646 6.87171 9.05275C7.04574 9.19864 7.18459 9.30952 7.31757 9.39125C6.9167 9.43599 6.24789 9.44574 5.79028 9.08386ZM6.29091 5.86433C6.29091 5.77873 6.35936 5.71066 6.44543 5.71066C6.46499 5.71066 6.48258 5.7145 6.49823 5.72033C6.51975 5.72815 6.53931 5.73983 6.55494 5.75729C6.58233 5.78456 6.59796 5.82344 6.59796 5.8643C6.59796 5.9499 6.52953 6.01797 6.44351 6.01797C6.35748 6.01797 6.29091 5.94992 6.29091 5.86433ZM7.84561 6.66193C7.74588 6.70279 7.64615 6.73777 7.55032 6.74167C7.40169 6.74945 7.23938 6.68913 7.15139 6.61521C7.01451 6.50043 6.91672 6.43627 6.87566 6.23588C6.85804 6.15028 6.86782 6.01799 6.8835 5.94215C6.91868 5.77873 6.87957 5.6737 6.76421 5.57834C6.67032 5.50052 6.55103 5.47915 6.42 5.47915C6.3711 5.47915 6.32616 5.45773 6.29289 5.44022C6.23813 5.413 6.19318 5.34491 6.23619 5.26126C6.24987 5.23405 6.31638 5.16789 6.33203 5.15623C6.51 5.05504 6.71533 5.08814 6.90502 5.164C7.08104 5.23598 7.21401 5.36827 7.40564 5.55501C7.6012 5.78065 7.63639 5.84295 7.74786 6.01216C7.83589 6.14446 7.91607 6.28061 7.97081 6.43626C8.00406 6.53354 7.96099 6.61329 7.84561 6.66193Z" fill="black" style="fill:black;fill-opacity:1;"/>
</svg>
