<svg width="36" height="36" viewBox="0 0 36 36" fill="none" xmlns="http://www.w3.org/2000/svg">
<path d="M35.6223 7.1822C35.241 6.99882 35.0768 7.34828 34.8538 7.52581C34.7775 7.58308 34.713 7.65751 34.6484 7.72622C34.0911 8.31034 33.4399 8.69419 32.5892 8.6483C31.3455 8.57952 30.2836 8.96337 29.3449 9.89695C29.1454 8.74573 28.4825 8.05832 27.4734 7.6174C26.9455 7.38826 26.4116 7.15913 26.0419 6.66081C25.7838 6.30582 25.7134 5.9106 25.5843 5.52109C25.5021 5.2863 25.42 5.04566 25.1443 5.00555C24.8451 4.95979 24.7277 5.20596 24.6104 5.41228C24.1411 6.25427 23.9592 7.18213 23.9768 8.12144C24.0178 10.235 24.9272 11.9188 26.7341 13.1159C26.9394 13.2534 26.9922 13.3907 26.9277 13.5913C26.8045 14.0037 26.6578 14.4046 26.5288 14.817C26.4466 15.0805 26.3234 15.1377 26.036 15.0231C25.0445 14.6165 24.1879 14.0151 23.4311 13.2877C22.1463 12.0677 20.9847 10.7218 19.5356 9.66788C19.1954 9.42158 18.855 9.19257 18.503 8.97481C17.0246 7.56591 18.6966 6.40885 19.0838 6.27149C19.4886 6.12829 19.2246 5.63563 17.9163 5.64148C16.608 5.64714 15.4112 6.07674 13.8859 6.64949C13.663 6.73543 13.4283 6.79835 13.1877 6.8499C11.8032 6.59222 10.3658 6.53483 8.86394 6.70104C6.03615 7.01026 3.77753 8.32191 2.11725 10.5614C0.122602 13.2534 -0.346723 16.3118 0.228227 19.5021C0.832514 22.8641 2.58074 25.6477 5.26775 27.8243C8.05449 30.0808 11.2636 31.1863 14.9244 30.9743C17.1479 30.8484 19.6237 30.5563 22.4163 28.2366C23.1202 28.5803 23.8595 28.7177 25.0857 28.8208C26.0302 28.9067 26.9396 28.775 27.6435 28.6319C28.7465 28.4027 28.6703 27.4004 28.2713 27.2171C25.0388 25.7395 25.7486 26.3408 25.1033 25.8539C26.7459 23.9467 29.2218 21.9649 30.1898 15.5443C30.266 15.0346 30.2015 14.7138 30.1898 14.3014C30.1839 14.0495 30.2425 13.9521 30.5359 13.9234C31.3455 13.8318 32.1316 13.6142 32.8532 13.2247C34.9477 12.1021 35.7924 10.2578 35.9919 8.04701C36.0213 7.70905 35.9861 7.3596 35.6223 7.1822ZM17.3708 27.0796C14.238 24.6627 12.7186 23.8664 12.0908 23.9008C11.5041 23.9352 11.6098 24.5939 11.7388 25.0235C11.8737 25.4473 12.0497 25.7395 12.2961 26.1117C12.4662 26.358 12.5836 26.7245 12.126 26.9995C11.1169 27.6124 9.36273 26.7932 9.28055 26.7532C7.23902 25.5733 5.53178 24.0153 4.32904 21.8848C3.16742 19.8342 2.4928 17.6349 2.38128 15.2866C2.35194 14.7196 2.52207 14.519 3.09702 14.4161C3.85382 14.2786 4.63413 14.2499 5.39093 14.3587C8.58838 14.817 11.3105 16.2202 13.5926 18.4425C14.895 19.7082 15.8806 21.2204 16.8956 22.6981C17.9751 24.2673 19.1367 25.7623 20.6151 26.988C21.1372 27.4175 21.5538 27.744 21.9527 27.9846C20.7501 28.1163 18.7437 28.1451 17.3708 27.0796ZM18.8727 17.6005C18.8727 17.3485 19.0781 17.1481 19.3363 17.1481C19.395 17.1481 19.4477 17.1594 19.4947 17.1766C19.5593 17.1996 19.6179 17.234 19.6648 17.2854C19.747 17.3657 19.7939 17.4802 19.7939 17.6005C19.7939 17.8525 19.5886 18.0529 19.3305 18.0529C19.0724 18.0529 18.8727 17.8526 18.8727 17.6005ZM23.5368 19.9489C23.2376 20.0692 22.9384 20.1722 22.651 20.1837C22.2051 20.2065 21.7181 20.029 21.4542 19.8113C21.0435 19.4734 20.7502 19.2845 20.627 18.6945C20.5741 18.4425 20.6035 18.053 20.6505 17.8297C20.756 17.3485 20.6387 17.0393 20.2926 16.7585C20.011 16.5294 19.6531 16.4665 19.26 16.4665C19.1133 16.4665 18.9785 16.4034 18.8787 16.3519C18.7144 16.2717 18.5796 16.0713 18.7086 15.825C18.7496 15.7449 18.9491 15.5501 18.9961 15.5157C19.53 15.2178 20.146 15.3153 20.7151 15.5386C21.2431 15.7505 21.642 16.14 22.2169 16.6898C22.8036 17.3542 22.9092 17.5376 23.2436 18.0358C23.5077 18.4253 23.7482 18.8262 23.9124 19.2845C24.0122 19.5709 23.883 19.8057 23.5368 19.9489Z" fill="black" style="fill:black;fill-opacity:1;"/>
</svg>
