<svg width="24" height="24" viewBox="0 0 24 24" fill="none" xmlns="http://www.w3.org/2000/svg">
<path d="M23.7482 4.65152C23.494 4.52696 23.3845 4.76434 23.2359 4.88493C23.185 4.92384 23.142 4.9744 23.099 5.02107C22.7274 5.41786 22.2933 5.67861 21.7261 5.64743C20.897 5.60072 20.1891 5.86146 19.5633 6.49564C19.4303 5.71362 18.9883 5.24667 18.3156 4.94715C17.9636 4.7915 17.6077 4.63585 17.3613 4.29734C17.1892 4.0562 17.1423 3.78773 17.0562 3.52314C17.0014 3.36365 16.9467 3.20018 16.7628 3.17294C16.5634 3.14185 16.4851 3.30907 16.4069 3.44922C16.094 4.02118 15.9728 4.65148 15.9845 5.28954C16.0119 6.72525 16.6181 7.86905 17.8227 8.68223C17.9596 8.77563 17.9948 8.86893 17.9518 9.0052C17.8697 9.28533 17.7719 9.55764 17.6859 9.83777C17.6311 10.0168 17.5489 10.0557 17.3573 9.97779C16.6963 9.70164 16.1253 9.29306 15.6207 8.79898C14.7642 7.97025 13.9898 7.05594 13.0237 6.34003C12.7969 6.17272 12.57 6.01715 12.3353 5.86923C11.3497 4.91218 12.4644 4.12619 12.7226 4.03288C12.9924 3.93561 12.8164 3.60095 11.9442 3.60492C11.072 3.60876 10.2742 3.90059 9.25728 4.28966C9.10867 4.34803 8.95217 4.39078 8.79182 4.42579C7.8688 4.25075 6.91055 4.21177 5.9093 4.32467C4.0241 4.53473 2.51835 5.42572 1.4115 6.94701C0.0817348 8.77563 -0.231148 10.8532 0.152152 13.0204C0.55501 15.3042 1.7205 17.195 3.51183 18.6736C5.36966 20.2064 7.50907 20.9574 9.94962 20.8134C11.432 20.7278 13.0825 20.5294 14.9442 18.9537C15.4135 19.1872 15.9063 19.2805 16.7238 19.3505C17.3535 19.4089 17.9597 19.3194 18.429 19.2222C19.1643 19.0665 19.1135 18.3856 18.8476 18.2612C16.6925 17.2574 17.1657 17.6659 16.7355 17.3351C17.8306 16.0396 19.4812 14.6933 20.1265 10.3318C20.1773 9.98561 20.1343 9.7677 20.1265 9.48757C20.1226 9.31641 20.1617 9.25031 20.3573 9.23079C20.897 9.16853 21.4211 9.02074 21.9022 8.75615C23.2985 7.99361 23.8616 6.7408 23.9946 5.23898C24.0142 5.00941 23.9907 4.77203 23.7482 4.65152ZM11.5806 18.1677C9.49202 16.5259 8.47906 15.985 8.06053 16.0084C7.66942 16.0318 7.73984 16.4792 7.82584 16.771C7.91581 17.0589 8.03316 17.2574 8.1974 17.5102C8.31081 17.6775 8.38909 17.9265 8.08402 18.1133C7.41128 18.5296 6.24182 17.9732 6.18704 17.946C4.82601 17.1445 3.68786 16.0862 2.88603 14.6389C2.11161 13.246 1.66187 11.752 1.58752 10.1568C1.56796 9.77167 1.68138 9.6354 2.06468 9.56546C2.56921 9.47207 3.08942 9.45255 3.59395 9.52647C5.72559 9.83777 7.54033 10.791 9.06174 12.3006C9.93002 13.1604 10.5871 14.1876 11.2638 15.1914C11.9834 16.2574 12.7578 17.2729 13.7434 18.1055C14.0915 18.3973 14.3692 18.619 14.6351 18.7825C13.8334 18.872 12.4958 18.8915 11.5806 18.1677ZM12.5818 11.7287C12.5818 11.5575 12.7187 11.4213 12.8909 11.4213C12.93 11.4213 12.9652 11.429 12.9965 11.4407C13.0395 11.4563 13.0786 11.4797 13.1099 11.5146C13.1647 11.5691 13.1959 11.6469 13.1959 11.7286C13.1959 11.8998 13.0591 12.0359 12.887 12.0359C12.715 12.0359 12.5818 11.8998 12.5818 11.7287ZM15.6912 13.3239C15.4918 13.4056 15.2923 13.4755 15.1006 13.4833C14.8034 13.4989 14.4788 13.3783 14.3028 13.2304C14.029 13.0009 13.8334 12.8725 13.7513 12.4718C13.7161 12.3006 13.7356 12.036 13.767 11.8843C13.8374 11.5575 13.7591 11.3474 13.5284 11.1567C13.3406 11.001 13.1021 10.9583 12.84 10.9583C12.7422 10.9583 12.6523 10.9155 12.5858 10.8804C12.4763 10.826 12.3864 10.6898 12.4724 10.5225C12.4997 10.4681 12.6328 10.3358 12.6641 10.3125C13.02 10.1101 13.4307 10.1763 13.81 10.328C14.1621 10.472 14.428 10.7365 14.8113 11.11C15.2024 11.5613 15.2728 11.6859 15.4957 12.0243C15.6718 12.2889 15.8321 12.5612 15.9416 12.8725C16.0081 13.0671 15.922 13.2266 15.6912 13.3239Z" fill="black" style="fill:black;fill-opacity:1;"/>
</svg>
